<svg width="30" height="30" viewBox="0 0 30 30" fill="none" xmlns="http://www.w3.org/2000/svg">
<g clip-path="url(#clip0_1_643)">
<path d="M15 29.9998C6.7099 29.9998 0 23.2816 0 15C0 6.70967 6.70876 0 15 0C23.2903 0 29.9998 6.70876 29.9998 15C29.9998 23.2896 23.2809 29.9998 15 29.9998Z" fill="#455D7A"/>
<path d="M15.0001 18.5156C10.6355 18.5156 6.474 20.4236 3.43262 24.5489C9.48906 31.8697 20.6995 31.8072 26.6742 24.4183C25.1988 22.9507 21.8757 18.5156 15.0001 18.5156Z" fill="#E7EAEE"/>
<path d="M15 15.8789C12.0921 15.8789 9.72656 13.5132 9.72656 10.6055V8.84766C9.72656 5.93994 12.0921 3.57422 15 3.57422C17.9077 3.57422 20.2734 5.93994 20.2734 8.84766V10.6055C20.2734 13.5132 17.9077 15.8789 15 15.8789Z" fill="#E7EAEE"/>
</g>
<defs>
<clipPath id="clip0_1_643">
<rect width="30" height="30" rx="15" fill="white"/>
</clipPath>
</defs>
</svg>
