<svg width="15" height="14" viewBox="0 0 15 14" fill="none" xmlns="http://www.w3.org/2000/svg">
<path d="M7.52938 2C7.52938 1.44772 7.9771 1 8.52938 1H12.8823C13.4346 1 13.8823 1.44772 13.8823 2V4.5C13.8823 5.05228 13.4346 5.5 12.8823 5.5H8.52938C7.9771 5.5 7.52938 5.05228 7.52938 4.5V2ZM8.52938 13.75C7.9771 13.75 7.52938 13.3023 7.52938 12.75V7.25C7.52938 6.69772 7.9771 6.25 8.52938 6.25H12.8823C13.4346 6.25 13.8823 6.69772 13.8823 7.25V12.75C13.8823 13.3023 13.4346 13.75 12.8823 13.75H8.52938ZM1.38232 13.75C0.83004 13.75 0.382324 13.3023 0.382324 12.75V10.25C0.382324 9.69772 0.83004 9.25 1.38232 9.25H5.73526C6.28755 9.25 6.73526 9.69772 6.73526 10.25V12.75C6.73526 13.3023 6.28755 13.75 5.73526 13.75H1.38232ZM1.38232 8.5C0.83004 8.5 0.382324 8.05228 0.382324 7.5V2C0.382324 1.44772 0.83004 1 1.38232 1H5.73526C6.28755 1 6.73526 1.44772 6.73526 2V7.5C6.73526 8.05228 6.28755 8.5 5.73526 8.5H1.38232ZM2.17644 1.75C1.62416 1.75 1.17644 2.19772 1.17644 2.75V6.75C1.17644 7.30228 1.62416 7.75 2.17644 7.75H4.94115C5.49343 7.75 5.94115 7.30229 5.94115 6.75V2.75C5.94115 2.19772 5.49343 1.75 4.94115 1.75H2.17644ZM9.3235 1.75C8.77121 1.75 8.3235 2.19772 8.3235 2.75V3.75C8.3235 4.30228 8.77121 4.75 9.3235 4.75H12.0882C12.6405 4.75 13.0882 4.30228 13.0882 3.75V2.75C13.0882 2.19772 12.6405 1.75 12.0882 1.75H9.3235ZM9.3235 7C8.77121 7 8.3235 7.44772 8.3235 8V12C8.3235 12.5523 8.77121 13 9.3235 13H12.0882C12.6405 13 13.0882 12.5523 13.0882 12V8C13.0882 7.44772 12.6405 7 12.0882 7H9.3235ZM2.17644 10C1.62416 10 1.17644 10.4477 1.17644 11V12C1.17644 12.5523 1.62416 13 2.17644 13H4.94115C5.49343 13 5.94115 12.5523 5.94115 12V11C5.94115 10.4477 5.49343 10 4.94115 10H2.17644Z" fill="white" stroke="white" stroke-width="0.3"/>
</svg>
