<svg width="23" height="22" viewBox="0 0 23 22" fill="none" xmlns="http://www.w3.org/2000/svg">
<path d="M22.3333 10.7812C22.3333 13.3544 20.2395 15.4479 17.6667 15.4479H14.3333C13.9648 15.4479 13.6667 15.1494 13.6667 14.7812C13.6667 14.4131 13.9648 14.1146 14.3333 14.1146H17.6667C19.5045 14.1146 21 12.6191 21 10.7812C21 8.94342 19.5045 7.44792 17.6667 7.44792H17C16.6315 7.44792 16.3333 7.14942 16.3333 6.78125C16.3333 4.20808 14.2395 2.11458 11.6667 2.11458C9.09383 2.11458 7 4.20808 7 6.78125C7 7.14942 6.70183 7.44792 6.33333 7.44792H5.66667C3.82883 7.44792 2.33333 8.94342 2.33333 10.7812C2.33333 12.6191 3.82883 14.1146 5.66667 14.1146H9C9.3685 14.1146 9.66667 14.4131 9.66667 14.7812C9.66667 15.1494 9.3685 15.4479 9 15.4479H5.66667C3.09383 15.4479 1 13.3544 1 10.7812C1 8.20808 3.09383 6.11458 5.66667 6.11458H5.70383C6.0365 3.11875 8.58333 0.78125 11.6667 0.78125C14.75 0.78125 17.2968 3.11875 17.6295 6.11458H17.6667C20.2397 6.11458 22.3333 8.20808 22.3333 10.7812ZM13.862 16.9766L12.3333 18.5053V10.1146C12.3333 9.74642 12.0352 9.44792 11.6667 9.44792C11.2982 9.44792 11 9.74642 11 10.1146V18.5053L9.47133 16.9766C9.21083 16.7161 8.789 16.7161 8.52867 16.9766C8.26833 17.2371 8.26817 17.6589 8.52867 17.9193L11.1953 20.5859C11.3255 20.7161 11.4962 20.7812 11.6667 20.7812C11.8372 20.7812 12.0078 20.7161 12.138 20.5859L14.8047 17.9193C15.0652 17.6588 15.0652 17.2369 14.8047 16.9766C14.5442 16.7163 14.1223 16.7161 13.862 16.9766Z" fill="#808A90" stroke="#808A90" stroke-width="0.5"/>
</svg>
