<svg width="14" height="14" viewBox="0 0 14 14" fill="none" xmlns="http://www.w3.org/2000/svg">
<path d="M10.8128 1.09375H9.07812C8.17348 1.09375 7.4375 1.82973 7.4375 2.73438V6.45313L5.41376 6.45312C5.15971 5.20655 4.05486 4.26562 2.73438 4.26562C1.22664 4.26562 0 5.49227 0 7C0 8.50773 1.22664 9.73438 2.73438 9.73438C4.05486 9.73438 5.15971 8.79345 5.41376 7.54688L7.4375 7.54688V11.2656C7.4375 12.1703 8.17348 12.9062 9.07812 12.9062H10.8128C11.0386 13.5428 11.6464 14 12.3594 14C13.264 14 14 13.264 14 12.3594C14 11.4547 13.264 10.7188 12.3594 10.7188C11.6464 10.7188 11.0386 11.176 10.8128 11.8125H9.07812C8.77658 11.8125 8.53125 11.5672 8.53125 11.2656V7.54688H10.8128C11.0386 8.18338 11.6464 8.64062 12.3594 8.64062C13.264 8.64062 14 7.90464 14 7C14 6.09539 13.264 5.35938 12.3594 5.35938C11.6464 5.35938 11.0386 5.81662 10.8128 6.45313H8.53125V2.73438C8.53125 2.43283 8.77658 2.1875 9.07812 2.1875H10.8128C11.0386 2.82401 11.6464 3.28125 12.3594 3.28125C13.264 3.28125 14 2.54527 14 1.64062C14 0.735985 13.264 0 12.3594 0C11.6464 0 11.0386 0.457242 10.8128 1.09375ZM12.9062 12.3594C12.9062 12.6609 12.6609 12.9062 12.3594 12.9062C12.0578 12.9062 11.8125 12.6609 11.8125 12.3594C11.8125 12.0578 12.0578 11.8125 12.3594 11.8125C12.6609 11.8125 12.9062 12.0578 12.9062 12.3594ZM12.9062 7C12.9062 7.30155 12.6609 7.54688 12.3594 7.54688C12.0578 7.54688 11.8125 7.30155 11.8125 7C11.8125 6.69845 12.0578 6.45313 12.3594 6.45313C12.6609 6.45313 12.9062 6.69845 12.9062 7ZM4.375 7C4.375 7.90464 3.63902 8.64062 2.73438 8.64062C1.82973 8.64062 1.09375 7.90464 1.09375 7C1.09375 6.09539 1.82973 5.35938 2.73438 5.35938C3.63902 5.35938 4.375 6.09536 4.375 7ZM12.9062 1.64062C12.9062 1.94217 12.6609 2.1875 12.3594 2.1875C12.0578 2.1875 11.8125 1.94217 11.8125 1.64062C11.8125 1.33908 12.0578 1.09375 12.3594 1.09375C12.6609 1.09375 12.9062 1.33908 12.9062 1.64062Z" fill="white"/>
</svg>
