<svg width="17" height="11" viewBox="0 0 17 11" fill="none" xmlns="http://www.w3.org/2000/svg">
<path d="M6.19233 6.7895H3.42311C3.29767 6.7895 3.18576 6.83173 3.10497 6.91252C3.02419 6.99331 2.98197 7.10522 2.98197 7.23064C2.98197 7.35607 3.0242 7.46798 3.10499 7.54877C3.18578 7.62955 3.29768 7.67179 3.42311 7.67179H6.19236C6.3178 7.67179 6.42971 7.62956 6.51049 7.54876C6.59128 7.46797 6.6335 7.35607 6.6335 7.23064C6.6335 7.10521 6.59127 6.99331 6.51047 6.91252C6.42968 6.83173 6.31777 6.7895 6.19233 6.7895Z" fill="white" stroke="white" stroke-width="0.19"/>
<path d="M5.15384 5.05893H2.3846C2.25916 5.05893 2.14725 5.10116 2.06646 5.18196C1.98567 5.26275 1.94345 5.37466 1.94345 5.50008C1.94345 5.62551 1.98568 5.73742 2.06647 5.8182C2.14726 5.89899 2.25917 5.94123 2.3846 5.94123H5.15384C5.27928 5.94123 5.39119 5.899 5.47198 5.8182C5.55277 5.73741 5.59499 5.6255 5.59499 5.50008C5.59499 5.37466 5.55277 5.26275 5.47198 5.18196C5.39119 5.10116 5.27928 5.05893 5.15384 5.05893Z" fill="white" stroke="white" stroke-width="0.19"/>
<path d="M4.11539 3.32814H1.34614C1.22072 3.32814 1.10881 3.37036 1.02802 3.45115C0.947231 3.53194 0.905 3.64385 0.905 3.76929C0.905 3.89473 0.947231 4.00664 1.02802 4.08742C1.10881 4.16821 1.22072 4.21043 1.34614 4.21043H4.11539C4.24083 4.21043 4.35274 4.1682 4.43353 4.08741C4.51431 4.00662 4.55654 3.89471 4.55654 3.76929C4.55654 3.64386 4.51431 3.53196 4.43353 3.45116C4.35274 3.37037 4.24083 3.32814 4.11539 3.32814Z" fill="white" stroke="white" stroke-width="0.19"/>
<path d="M14.2354 2.37783L14.2347 2.37835L10.5664 5.18152C10.2193 5.43336 9.74618 5.43336 9.3991 5.18152L5.73079 2.37835L5.73079 2.37834L5.73011 2.37783C5.64097 2.31099 5.52198 2.27925 5.40881 2.29002C5.29524 2.30084 5.18012 2.35569 5.10958 2.46998C5.04472 2.55866 5.01406 2.67584 5.02468 2.78736C5.03548 2.90076 5.0902 3.01573 5.20417 3.08629L8.90374 5.88693C9.23426 6.14378 9.6362 6.2527 10 6.2527C10.3596 6.2527 10.7989 6.14594 11.0986 5.88517L14.7648 3.08368C14.7649 3.08359 14.765 3.08349 14.7651 3.0834C14.8589 3.01292 14.9117 2.90117 14.9273 2.79178C14.9429 2.68225 14.9234 2.56001 14.853 2.46606C14.7825 2.3721 14.6706 2.31917 14.5611 2.30353C14.4516 2.28788 14.3293 2.30737 14.2354 2.37783L14.2354 2.37783Z" fill="white" stroke="white" stroke-width="0.19"/>
<path d="M15.1924 0.905H4.11537C3.98993 0.905 3.87802 0.947231 3.79723 1.02802C3.71645 1.10881 3.67423 1.22072 3.67423 1.34614C3.67423 1.47157 3.71645 1.58348 3.79723 1.66428C3.87801 1.74508 3.98992 1.78732 4.11537 1.78732H15.1924C15.2746 1.78732 15.3358 1.81433 15.3761 1.85469C15.4165 1.89505 15.4435 1.95622 15.4435 2.03846V8.96157C15.4435 9.04383 15.4165 9.10499 15.3761 9.14535C15.3358 9.18571 15.2746 9.21271 15.1924 9.21271H4.11537C3.98993 9.21271 3.87802 9.25494 3.79723 9.33573C3.71645 9.41653 3.67423 9.52843 3.67423 9.65386C3.67423 9.7793 3.71646 9.89121 3.79725 9.97199C3.87804 10.0528 3.98995 10.095 4.11537 10.095H15.1924C15.8333 10.095 16.3258 9.60247 16.3258 8.96154V2.03846C16.3258 1.39756 15.8333 0.905 15.1924 0.905Z" fill="white" stroke="white" stroke-width="0.19"/>
<path d="M14.8096 7.9598L14.8095 7.95979L12.7326 5.88286C12.557 5.70728 12.2892 5.70728 12.1136 5.88286C11.9381 6.05843 11.9381 6.32625 12.1136 6.50183L14.1906 8.57876C14.2788 8.66696 14.4073 8.71043 14.5 8.71043C14.5928 8.71043 14.7213 8.66696 14.8095 8.57877L14.8095 8.57876C14.9851 8.40321 14.9851 8.13537 14.8096 7.9598Z" fill="white" stroke="white" stroke-width="0.19"/>
</svg>
