<svg width="14" height="14" viewBox="0 0 14 14" fill="none" xmlns="http://www.w3.org/2000/svg">
<path d="M7 1.83332C7 1.28104 7.44771 0.833321 8 0.833321H12C12.5523 0.833321 13 1.28104 13 1.83332V4.08332C13 4.63561 12.5523 5.08332 12 5.08332H8C7.44771 5.08332 7 4.63561 7 4.08332V1.83332ZM8 12.875C7.44771 12.875 7 12.4273 7 11.875V6.79165C7 6.23937 7.44771 5.79165 8 5.79165H12C12.5523 5.79165 13 6.23937 13 6.79165V11.875C13 12.4273 12.5523 12.875 12 12.875H8ZM1.25 12.875C0.697715 12.875 0.25 12.4273 0.25 11.875V9.62499C0.25 9.0727 0.697715 8.62499 1.25 8.62499H5.25C5.80228 8.62499 6.25 9.0727 6.25 9.62499V11.875C6.25 12.4273 5.80228 12.875 5.25 12.875H1.25ZM1.25 7.91665C0.697715 7.91665 0.25 7.46894 0.25 6.91665V1.83332C0.25 1.28104 0.697715 0.833321 1.25 0.833321H5.25C5.80228 0.833321 6.25 1.28104 6.25 1.83332V6.91665C6.25 7.46894 5.80228 7.91665 5.25 7.91665H1.25ZM2 1.54165C1.44772 1.54165 1 1.98937 1 2.54165V6.20832C1 6.76061 1.44772 7.20832 2 7.20832H4.5C5.05228 7.20832 5.5 6.76061 5.5 6.20832V2.54165C5.5 1.98937 5.05228 1.54165 4.5 1.54165H2ZM8.75 1.54165C8.19771 1.54165 7.75 1.98937 7.75 2.54165V3.37499C7.75 3.92727 8.19771 4.37499 8.75 4.37499H11.25C11.8023 4.37499 12.25 3.92727 12.25 3.37499V2.54165C12.25 1.98937 11.8023 1.54165 11.25 1.54165H8.75ZM8.75 6.49999C8.19771 6.49999 7.75 6.9477 7.75 7.49999V11.1667C7.75 11.7189 8.19771 12.1667 8.75 12.1667H11.25C11.8023 12.1667 12.25 11.7189 12.25 11.1667V7.49999C12.25 6.9477 11.8023 6.49999 11.25 6.49999H8.75ZM2 9.33332C1.44772 9.33332 1 9.78104 1 10.3333V11.1667C1 11.7189 1.44772 12.1667 2 12.1667H4.5C5.05228 12.1667 5.5 11.7189 5.5 11.1667V10.3333C5.5 9.78104 5.05228 9.33332 4.5 9.33332H2Z" fill="white" stroke="white" stroke-width="0.3"/>
</svg>
