<svg width="14" height="13" viewBox="0 0 14 13" fill="none" xmlns="http://www.w3.org/2000/svg">
<path fill-rule="evenodd" clip-rule="evenodd" d="M9.77529 8.31187L13.3395 11.6744C13.4648 11.7926 13.5352 11.953 13.5351 12.1202C13.535 12.2874 13.4646 12.4477 13.3392 12.5659C13.2138 12.6841 13.0438 12.7505 12.8666 12.7504C12.6894 12.7504 12.5194 12.6839 12.3942 12.5656L8.8299 9.20312C7.76441 9.98167 6.42455 10.348 5.08289 10.2277C3.74122 10.1074 2.49854 9.50939 1.60765 8.55538C0.716751 7.60136 0.244559 6.363 0.287132 5.09221C0.329706 3.82142 0.883845 2.61366 1.83682 1.71462C2.7898 0.815587 4.07003 0.292814 5.41706 0.25265C6.7641 0.212487 8.07677 0.657951 9.08802 1.49842C10.0993 2.33889 10.7331 3.51123 10.8607 4.77695C10.9882 6.04267 10.5999 7.30669 9.77463 8.31187H9.77529ZM5.58498 8.99999C6.63921 8.99999 7.65027 8.6049 8.39573 7.90164C9.14118 7.19838 9.55998 6.24455 9.55998 5.24999C9.55998 4.25543 9.14118 3.3016 8.39573 2.59834C7.65027 1.89508 6.63921 1.49999 5.58498 1.49999C4.53074 1.49999 3.51969 1.89508 2.77423 2.59834C2.02877 3.3016 1.60998 4.25543 1.60998 5.24999C1.60998 6.24455 2.02877 7.19838 2.77423 7.90164C3.51969 8.6049 4.53074 8.99999 5.58498 8.99999Z" fill="#B1B1B1"/>
</svg>
