<svg width="12" height="14" viewBox="0 0 12 14" fill="none" xmlns="http://www.w3.org/2000/svg">
<path d="M11.4753 2.26696L6.11595 0.0418052C5.9817 -0.0139214 5.83079 -0.0139487 5.69656 0.0418052L0.337176 2.26696C0.133055 2.35172 0 2.55101 0 2.77203V5.47701C0 9.20159 2.25119 12.5519 5.69959 13.9595C5.83204 14.0135 5.98044 14.0135 6.11292 13.9595C9.56127 12.552 11.8125 9.20161 11.8125 5.47701V2.77203C11.8125 2.55101 11.6795 2.35172 11.4753 2.26696V2.26696ZM10.7188 5.47701C10.7188 8.64328 8.85938 11.558 5.90625 12.8591C3.03204 11.5928 1.09375 8.72909 1.09375 5.47701V3.13712L5.90625 1.139L10.7188 3.13712V5.47701ZM5.30179 7.32036L7.65237 4.96981C7.86593 4.75625 8.21218 4.75623 8.42576 4.96981C8.63935 5.18339 8.63932 5.52965 8.42574 5.7432L5.68849 8.48045C5.47488 8.69406 5.12863 8.69398 4.9151 8.48045L3.38675 6.9521C3.17316 6.73851 3.17316 6.39226 3.38675 6.1787C3.60033 5.96515 3.94658 5.96512 4.16014 6.1787L5.30179 7.32036Z" fill="white"/>
</svg>
