<svg width="17" height="17" viewBox="0 0 17 17" fill="none" xmlns="http://www.w3.org/2000/svg">
<path d="M5.14789 0.951321L5.14792 0.951316C5.59483 0.889561 6.04801 0.889561 6.49492 0.951316L6.49495 0.951321C6.62844 0.969818 6.74041 1.0605 6.78635 1.18692L6.69707 1.21937L6.78635 1.18692L7.08977 2.02186C7.26851 2.08156 7.4427 2.15375 7.6113 2.23799L8.41604 1.86213L5.14789 0.951321ZM5.14789 0.951321C5.0144 0.969818 4.90242 1.0605 4.85648 1.18692L4.55307 2.02186C4.37433 2.08156 4.20014 2.15375 4.03153 2.23799L3.2268 1.86213M5.14789 0.951321L1.90159 2.8541M10.6915 5.14789L10.6915 5.14792C10.7533 5.59483 10.7533 6.04801 10.6915 6.49492L10.6915 6.49495C10.673 6.62844 10.5823 6.74041 10.4559 6.78635L9.62098 7.08977C9.56128 7.26851 9.48909 7.4427 9.40484 7.6113L9.7807 8.41604L10.6915 5.14789ZM10.6915 5.14789C10.673 5.0144 10.5823 4.90242 10.4559 4.85648L9.62098 4.55307C9.56128 4.37433 9.48909 4.20014 9.40484 4.03154L9.7807 3.2268L10.6915 5.14789ZM6.49495 10.6915L6.49492 10.6915C6.04801 10.7533 5.59483 10.7533 5.14792 10.6915L5.14789 10.6915C5.0144 10.673 4.90242 10.5823 4.85648 10.4559L4.55307 9.62098C4.37433 9.56128 4.20014 9.48909 4.03154 9.40484L3.2268 9.7807L6.49495 10.6915ZM6.49495 10.6915C6.62844 10.673 6.74041 10.5823 6.78635 10.4559L7.08977 9.62098C7.26851 9.56128 7.4427 9.48909 7.6113 9.40484L8.41604 9.7807L6.49495 10.6915ZM1.21937 6.69707L1.18692 6.78635C1.0605 6.74041 0.969818 6.62844 0.951321 6.49495L0.951316 6.49492C0.889561 6.04801 0.889561 5.59483 0.951316 5.14792L0.951321 5.14789C0.969818 5.0144 1.0605 4.90242 1.18692 4.85648L2.02186 4.55307C2.08156 4.37433 2.15375 4.20014 2.23799 4.03153L1.86213 3.2268L1.21937 6.69707ZM1.21937 6.69707L1.18692 6.78635L2.02186 7.08977C2.08156 7.26851 2.15375 7.4427 2.23799 7.6113L1.86213 8.41604L1.21937 6.69707ZM1.90159 2.8541C2.17391 2.49425 2.4943 2.17387 2.85414 1.90155L2.91147 1.97731L2.85405 1.90162C2.96141 1.82017 3.10491 1.80505 3.2268 1.86213M1.90159 2.8541C1.90158 2.85411 1.90157 2.85413 1.90155 2.85414L1.97731 2.91147L1.90159 2.8541ZM3.2268 1.86213L3.18651 1.94815L3.22671 1.86209L3.2268 1.86213ZM5.17372 2.43914L5.17366 2.43929C5.13365 2.54887 5.04366 2.63279 4.93104 2.66457L4.931 2.66458C4.68279 2.73449 4.44384 2.8336 4.2188 2.95973C4.11683 3.01689 3.99352 3.02111 3.88789 2.97183L3.88785 2.97182L3.12341 2.61478C2.93955 2.76944 2.76944 2.93955 2.61478 3.12341L2.97182 3.88785L2.97183 3.88789C3.02111 3.99352 3.01689 4.11683 2.95973 4.2188C2.8336 4.44384 2.73449 4.68279 2.66458 4.931L2.66457 4.93104C2.63279 5.04366 2.54887 5.13365 2.43929 5.17366L2.43914 5.17372L1.64623 5.46168C1.62556 5.70115 1.62556 5.94186 1.64622 6.18115L2.43914 6.46912L2.43929 6.46917C2.54887 6.50919 2.63279 6.59918 2.66457 6.71179L2.66458 6.71184C2.73449 6.96005 2.8336 7.199 2.95973 7.42404C3.01689 7.526 3.02111 7.64931 2.97183 7.75495L2.97182 7.75499L2.61478 8.51943C2.76944 8.70329 2.93955 8.87339 3.12341 9.02806L3.88785 8.67102L3.88789 8.671L5.17372 2.43914ZM5.17372 2.43914L5.46168 1.64622C5.70097 1.62556 5.94169 1.62556 6.18115 1.64623L6.46912 2.43914L6.46917 2.43929C6.50919 2.54887 6.59918 2.63279 6.71179 2.66457L6.71184 2.66458C6.96005 2.73449 7.199 2.8336 7.42404 2.95973C7.526 3.01689 7.64931 3.02111 7.75495 2.97183L7.75499 2.97182L8.51943 2.61478C8.70329 2.76944 8.87339 2.93955 9.02806 3.12341L8.67102 3.88785L8.671 3.88789M5.17372 2.43914L8.671 3.88789M8.671 3.88789C8.62173 3.99352 8.62595 4.11683 8.6831 4.2188L8.671 3.88789ZM9.74128 2.85414C9.46897 2.49431 9.14861 2.17394 8.78878 1.90162M9.74128 2.85414L9.66553 2.91147L9.74121 2.85405C9.74124 2.85408 9.74126 2.85411 9.74128 2.85414ZM9.74128 2.85414C9.82265 2.96147 9.83776 3.10488 9.78075 3.22671L8.78878 1.90162M8.78878 1.90162C8.68145 1.82019 8.53799 1.80505 8.41613 1.86209L8.78878 1.90162ZM9.74128 8.78869C9.46895 9.14855 9.14855 9.46895 8.78869 9.74128C8.68137 9.82265 8.53796 9.83776 8.41613 9.78075L9.74128 8.78869ZM9.74128 8.78869C9.82265 8.68137 9.83776 8.53796 9.78075 8.41613L9.74128 8.78869ZM2.85414 9.74128C2.49431 9.46897 2.17394 9.14861 1.90162 8.78878C1.9016 8.78875 1.90158 8.78872 1.90155 8.78869L1.97731 8.73137L2.85414 9.74128ZM2.85414 9.74128C2.96147 9.82265 3.10488 9.83776 3.22671 9.78075L2.85414 9.74128ZM4.931 8.97825C4.68279 8.90835 4.44384 8.80924 4.2188 8.68311L8.68311 4.2188C8.80924 4.44384 8.90835 4.68279 8.97825 4.931L8.97827 4.93104C9.01005 5.04366 9.09397 5.13365 9.20354 5.17366L9.2037 5.17372L9.99661 5.46168C10.0173 5.70097 10.0173 5.94169 9.99661 6.18115L9.2037 6.46912L9.20354 6.46917C9.09397 6.50919 9.01005 6.59918 8.97827 6.71179L8.97825 6.71184C8.90835 6.96005 8.80923 7.199 8.6831 7.42404C8.62595 7.526 8.62173 7.64931 8.671 7.75495L8.67102 7.75499L9.02806 8.51943C8.87339 8.70329 8.70329 8.87339 8.51943 9.02806L7.75499 8.67102L7.75495 8.671C7.64931 8.62173 7.526 8.62595 7.42404 8.6831C7.199 8.80923 6.96005 8.90835 6.71184 8.97825L6.71179 8.97827C6.59918 9.01005 6.50919 9.09397 6.46917 9.20354L6.46912 9.2037L6.18115 9.99661C5.94186 10.0173 5.70115 10.0173 5.46168 9.99661L5.17372 9.2037L5.17366 9.20354C5.13365 9.09397 5.04366 9.01005 4.93104 8.97827L4.931 8.97825ZM5.08442 2.40671C5.05483 2.48776 4.98835 2.54969 4.90524 2.57314L5.08442 2.40671ZM2.40671 6.55841C2.48776 6.58801 2.54969 6.65449 2.57314 6.73759L2.40671 6.55841Z" fill="white" stroke="white" stroke-width="0.19"/>
<path d="M5.82168 4.11929C4.88216 4.11929 4.11954 4.88191 4.11954 5.82143C4.11954 6.76094 4.88216 7.52356 5.82168 7.52356C6.7612 7.52356 7.52382 6.76094 7.52382 5.82143C7.52382 4.88191 6.7612 4.11929 5.82168 4.11929ZM5.82168 4.845C6.36058 4.845 6.7981 5.28252 6.7981 5.82143C6.7981 6.36033 6.36058 6.79785 5.82168 6.79785C5.28278 6.79785 4.84525 6.36033 4.84525 5.82143C4.84525 5.28253 5.28278 4.845 5.82168 4.845Z" fill="white" stroke="white" stroke-width="0.19"/>
<path d="M15.9057 12.2661L15.9057 12.2661C15.7076 12.5278 15.4743 12.7611 15.2126 12.9592L15.2126 12.9592C15.1053 13.0404 14.962 13.0557 14.84 12.9986L14.3181 12.7549C14.2249 12.7995 14.1293 12.8391 14.0318 12.8735L13.8351 13.4149C13.8351 13.4149 13.8351 13.4149 13.8351 13.4149C13.7892 13.5413 13.6772 13.6321 13.5438 13.6505C13.2186 13.6956 12.8887 13.6956 12.5634 13.6505C12.4301 13.6321 12.318 13.5413 12.2721 13.4149M15.9057 12.2661L12.3614 13.3825M15.9057 12.2661C15.9869 12.1589 16.0021 12.0156 15.9451 11.8936L15.9057 12.2661ZM12.2721 13.4149L12.3614 13.3825M12.2721 13.4149L12.2721 13.4149L12.3614 13.3825M12.2721 13.4149L12.0755 12.8735M12.3614 13.3825L12.1493 12.7985M12.0755 12.8735C12.0899 12.8786 12.1045 12.8836 12.119 12.8885L12.1493 12.7985M12.0755 12.8735L12.06 12.8309L12.1493 12.7985M12.0755 12.8735L12.1493 12.7985M11.2672 12.9986C11.1452 13.0557 11.0019 13.0404 10.8946 12.9592L10.8946 12.9592C10.6329 12.7611 10.3997 12.5278 10.2015 12.2661L10.2015 12.2661C10.1204 12.1589 10.1051 12.0156 10.1621 11.8936M11.2672 12.9986L10.1621 11.8936M11.2672 12.9986L11.2671 12.9987L11.2269 12.9126L11.2672 12.9986ZM10.1621 11.8936L10.4058 11.3716M10.1621 11.8936L10.4058 11.3716M10.4058 11.3716C10.3612 11.2784 10.3217 11.1828 10.2872 11.0853L9.74584 10.8886C9.74584 10.8886 9.74584 10.8886 9.74584 10.8886C9.61945 10.8427 9.5286 10.7307 9.51027 10.5973C9.4652 10.272 9.46521 9.94219 9.51028 9.61695L10.4058 11.3716ZM11.2672 7.21568C11.1452 7.15861 11.0019 7.17389 10.8946 7.25506L10.8946 7.25507C10.6329 7.45319 10.3997 7.68647 10.2015 7.94815L10.2015 7.94817L11.2672 7.21568ZM11.2672 7.21568L11.7892 7.45938M11.2672 7.21568L11.7892 7.45938M11.7892 7.45938C11.8824 7.41476 11.978 7.3752 12.0755 7.34077L12.2721 6.79937L12.2721 6.79936L12.3614 6.8318L11.7892 7.45938ZM12.4541 7.98152L12.4541 7.98153C12.2871 8.02867 12.126 8.09539 11.9744 8.18015L12.4541 7.98152ZM12.4541 7.98152C12.5666 7.94976 12.6567 7.86595 12.6966 7.75621C12.6966 7.7562 12.6966 7.75619 12.6966 7.75618L12.8765 7.26128C12.9944 7.25388 13.1127 7.25395 13.2308 7.26132L13.4106 7.75618C13.4106 7.75619 13.4106 7.7562 13.4106 7.75621C13.4505 7.86595 13.5406 7.94976 13.6531 7.98152L13.6531 7.98153M12.4541 7.98152L13.6531 7.98153M10.928 9.50762L10.928 9.50763C10.8962 9.62012 10.8124 9.71028 10.7027 9.75013C10.7027 9.75014 10.7027 9.75014 10.7027 9.75014L10.2078 9.93001C10.2004 10.048 10.2003 10.1664 10.2078 10.2843L10.7027 10.4642C10.7027 10.4642 10.7027 10.4642 10.7027 10.4642C10.8124 10.504 10.8962 10.5942 10.928 10.7067L10.928 10.7067C10.9751 10.8737 11.0419 11.0348 11.1267 11.1864C11.1836 11.2883 11.1882 11.4113 11.1388 11.5171C11.1388 11.5171 11.1388 11.5171 11.1388 11.5171L10.916 11.9942C10.9942 12.0828 11.078 12.1665 11.1666 12.2447L11.6437 12.022L11.6437 12.022L11.6839 12.108L10.928 9.50762ZM10.928 9.50762C10.9751 9.34061 11.0419 9.17958 11.1266 9.02792L10.928 9.50762ZM12.6966 12.4581C12.6568 12.3484 12.5666 12.2645 12.4541 12.2328L12.4541 12.2328C12.2871 12.1856 12.126 12.1189 11.9743 12.0341L12.6073 12.4905M12.6966 12.4581L12.6073 12.4905M12.6966 12.4581L12.6966 12.4581L12.6073 12.4905M12.6966 12.4581L12.8765 12.953M12.6073 12.4905L12.8082 13.0432M12.8765 12.953C12.8564 12.9517 12.8362 12.9502 12.8161 12.9486L12.8082 13.0432M12.8765 12.953L12.8975 13.0108L12.8082 13.0432M12.8765 12.953L12.8082 13.0432M13.4106 12.4581C13.4505 12.3484 13.5406 12.2645 13.6531 12.2328L13.6531 12.2328C13.8202 12.1856 13.9812 12.1189 14.1328 12.0341L13.4106 12.4581ZM13.4106 12.4581L13.4106 12.4581L13.4999 12.4905L13.4106 12.4581ZM15.1792 10.7067L15.1792 10.7067C15.211 10.5942 15.2948 10.504 15.4046 10.4642M15.1792 10.7067L15.4046 10.4642M15.1792 10.7067C15.1321 10.8737 15.0654 11.0347 14.9806 11.1864C14.9236 11.2882 14.919 11.4113 14.9684 11.5171C14.9684 11.5171 14.9684 11.5171 14.9684 11.5171L15.1912 11.9942C15.113 12.0828 15.0293 12.1665 14.9406 12.2447L14.4636 12.022M15.1792 10.7067L14.4636 12.022M15.4046 10.4642L15.8994 10.2843M15.4046 10.4642L15.8994 10.2843M15.8994 10.2843C15.9068 10.1663 15.9069 10.0479 15.8995 9.93003L15.4046 9.75014L15.4045 9.75013L15.437 9.66085L15.8994 10.2843ZM13.6531 7.98153C13.8202 8.02867 13.9812 8.09539 14.1328 8.18015M13.6531 7.98153L14.1328 8.18015M11.6437 8.19234C11.6437 8.19234 11.6437 8.19234 11.6436 8.19233L11.1666 7.96957C11.0779 8.04776 10.9942 8.13148 10.916 8.22014L11.1388 8.69718L11.1388 8.69719L11.0527 8.73738L11.6437 8.19234ZM11.6437 8.19234C11.7495 8.24176 11.8725 8.23718 11.9743 8.18019L11.6437 8.19234ZM14.4636 12.022C14.3578 11.9725 14.2348 11.9771 14.1329 12.0341L14.4636 12.022ZM14.9684 8.69718L15.1912 8.22014C15.113 8.13148 15.0293 8.04776 14.9406 7.96957L14.4636 8.19233C14.4636 8.19234 14.4636 8.19234 14.4636 8.19234C14.3577 8.24177 14.2347 8.23718 14.1328 8.18015M14.9684 8.69718L14.1328 8.18015M14.9684 8.69718C14.919 8.803 14.9236 8.92601 14.9806 9.02786L14.9684 8.69718ZM15.2126 7.25507L15.2126 7.25506L15.9451 8.32066C16.0021 8.19869 15.9869 8.05543 15.9057 7.94817L15.9057 7.94815C15.7076 7.68647 15.4743 7.45319 15.2126 7.25507ZM15.7014 8.84269L15.9451 8.32073V11.8936L15.7014 11.3716C15.746 11.2783 15.7855 11.1827 15.82 11.0853L16.3614 10.8886C16.3614 10.8886 16.3614 10.8886 16.3614 10.8886C16.4878 10.8427 16.5786 10.7307 16.597 10.5973C16.642 10.2721 16.642 9.94221 16.597 9.61695C16.5786 9.4836 16.4878 9.37156 16.3614 9.32566C16.3614 9.32566 16.3614 9.32566 16.3614 9.32566L15.82 9.129C15.7856 9.03151 15.746 8.93591 15.7014 8.84269ZM11.7892 12.7549L11.8303 12.7357L11.7901 12.6496L11.7477 12.7347C11.7615 12.7415 11.7753 12.7483 11.7892 12.7549ZM14.318 7.45939C14.2247 7.41477 14.1292 7.37522 14.0318 7.34079L14.8803 7.30173L14.8401 7.21565L14.84 7.21568L14.318 7.45939ZM13.2307 12.953L13.2097 13.0108L13.299 13.0432L13.291 12.9486C13.2709 12.9503 13.2508 12.9518 13.2307 12.953ZM9.74584 9.32566C9.74584 9.32566 9.74584 9.32566 9.74584 9.32566L10.2482 8.28047L10.1621 8.32066L10.1621 8.32073L10.4059 8.84272C10.3612 8.93602 10.3217 9.0316 10.2873 9.129L9.74584 9.32566Z" fill="white" stroke="white" stroke-width="0.19"/>
<path d="M13.0535 8.94084C12.4097 8.94084 11.8871 9.46346 11.8871 10.1073C11.8871 10.7511 12.4097 11.2737 13.0535 11.2737C13.6973 11.2737 14.22 10.7511 14.22 10.1073C14.22 9.46346 13.6973 8.94084 13.0535 8.94084ZM13.0535 9.66656C13.2967 9.66656 13.4943 9.86411 13.4943 10.1073C13.4943 10.3504 13.2967 10.548 13.0535 10.548C12.8104 10.548 12.6128 10.3504 12.6128 10.1073C12.6128 9.86411 12.8104 9.66656 13.0535 9.66656Z" fill="white" stroke="white" stroke-width="0.19"/>
<path d="M9.52956 12.0236C9.72145 12.2483 9.87038 12.5062 9.96895 12.7846C9.99841 12.868 9.98491 12.9606 9.93273 13.0321L9.52956 12.0236ZM9.52956 12.0236L9.60182 11.962C9.60181 11.962 9.6018 11.9619 9.6018 11.9619M9.52956 12.0236L9.6018 11.9619M9.7667 13.4201C9.77596 13.5327 9.77596 13.6458 9.7667 13.7585L10.0094 14.0905L10.0095 14.0905C10.0802 14.1874 10.0984 14.3127 10.0585 14.4257L10.0585 14.4258C9.95604 14.7151 9.80124 14.9832 9.6018 15.2167M9.7667 13.4201L9.66884 13.7856L9.93273 14.1466C9.98491 14.218 9.99841 14.3106 9.96895 14.3941C9.87038 14.6724 9.72145 14.9303 9.52956 15.155M9.7667 13.4201L10.0094 13.0881L10.0095 13.0881C10.0802 12.9913 10.0984 12.8659 10.0585 12.7529L10.0585 12.7528C9.95604 12.4635 9.80124 12.1955 9.6018 11.9619M9.7667 13.4201L7.23987 11.1256C7.54168 11.0696 7.85127 11.0696 8.15318 11.1256M9.6018 15.2167L9.52956 15.155M9.6018 15.2167C9.6018 15.2167 9.60181 15.2167 9.60182 15.2167L9.52956 15.155M9.6018 15.2167C9.52394 15.3079 9.40609 15.3546 9.28704 15.3418L9.28697 15.3418L8.87806 15.2976M9.52956 15.155C9.47213 15.2223 9.38513 15.2568 9.29716 15.2473L8.85263 15.1993M8.87806 15.2976C8.88812 15.2907 8.89812 15.2836 8.90805 15.2765L8.85263 15.1993M8.87806 15.2976L8.84243 15.2938L8.85263 15.1993M8.87806 15.2976C8.78518 15.3619 8.68719 15.4184 8.58509 15.4667M8.85263 15.1993C8.74613 15.2758 8.63224 15.3415 8.51267 15.3955M8.51267 15.3955L8.59957 15.4339L8.58509 15.4667M8.51267 15.3955L8.55177 15.4821C8.56292 15.4771 8.57403 15.4719 8.58509 15.4667M8.51267 15.3955L8.1531 16.053C8.27104 16.0313 8.37045 15.9526 8.4189 15.843L8.41893 15.843L8.58509 15.4667M9.6018 11.9619C9.52394 11.8707 9.40609 11.8241 9.28704 11.8368L9.28697 11.8368L8.87807 11.881M8.87807 11.881C8.78522 11.8167 8.68722 11.7601 8.58507 11.7119M8.87807 11.881L8.84243 11.8848L8.85263 11.9793M8.87807 11.881C8.88812 11.8879 8.89812 11.895 8.90805 11.9021L8.85263 11.9793M8.58507 11.7119L8.41893 11.3357L8.4189 11.3356C8.37046 11.2261 8.27108 11.1474 8.15318 11.1256M8.58507 11.7119C8.574 11.7067 8.56287 11.7015 8.5517 11.6965L8.51267 11.7831M8.58507 11.7119L8.59957 11.7447L8.51267 11.7831M8.15318 11.1256C8.15315 11.1256 8.15313 11.1256 8.1531 11.1256L8.13585 11.219M8.15318 11.1256L8.13585 11.219M8.13585 11.219C8.22285 11.2351 8.29624 11.2931 8.33203 11.374M8.13585 11.219C7.84538 11.1651 7.54753 11.1651 7.25717 11.219C7.17017 11.2351 7.09678 11.2931 7.06099 11.374H8.33203M8.33203 11.374L8.51267 11.7831M8.33203 11.374L8.85263 11.9793M6.80784 11.7119L6.9741 11.3356L6.97412 11.3356C7.02256 11.2261 7.12194 11.1474 7.23984 11.1256L6.80784 11.7119ZM6.80784 11.7119C6.70573 11.7602 6.60781 11.8167 6.51495 11.881L6.10594 11.8368L6.10587 11.8368C5.98681 11.8241 5.86895 11.8707 5.7911 11.962C5.59178 12.1955 5.43698 12.4635 5.33453 12.7528L6.80784 11.7119ZM8.51267 11.7831C8.63224 11.837 8.74613 11.9028 8.85263 11.9793M6.97412 15.843L6.9741 15.843L6.80784 15.4667C6.70578 15.4185 6.6078 15.3619 6.51495 15.2976L6.10594 15.3418L6.10587 15.3418C5.98682 15.3546 5.86895 15.3079 5.7911 15.2167C5.59178 14.9832 5.43698 14.7151 5.33453 14.4258C5.29446 14.3127 5.31291 14.1873 5.38356 14.0905L5.38358 14.0905L5.62623 13.7585C5.61705 13.6459 5.61705 13.5328 5.62623 13.4202L5.38358 13.0881L5.38356 13.0881C5.31292 12.9913 5.29446 12.8659 5.33452 12.7528L6.97412 15.843ZM6.97412 15.843C7.02257 15.9526 7.12198 16.0313 7.23991 16.053L6.97412 15.843ZM8.80409 12.5233C8.73317 12.5311 8.66213 12.5101 8.60674 12.4653C8.48877 12.3697 8.35656 12.2933 8.21481 12.239L8.06578 12.0971L7.97888 12.1355C8.01794 12.224 8.09066 12.293 8.18069 12.3277L8.18082 12.3277C8.3132 12.3784 8.43671 12.4498 8.54694 12.5391L8.54701 12.5391C8.62197 12.5998 8.71815 12.6282 8.81429 12.6178M8.80409 12.5233L8.81429 12.6178M8.80409 12.5233L8.81437 12.6178M8.80409 12.5233L8.81437 12.6178M8.81429 12.6178C8.81432 12.6178 8.81434 12.6178 8.81437 12.6178M8.81429 12.6178L8.81437 12.6178M7.32714 12.0971L7.49128 11.7257L6.2196 13.1631L5.97993 12.8351C6.035 12.7096 6.10389 12.5903 6.1851 12.4797L6.58892 12.5233C6.65985 12.5311 6.73078 12.5101 6.78617 12.4653C6.90414 12.3697 7.03646 12.2933 7.1781 12.239C7.24474 12.2134 7.29831 12.1624 7.32714 12.0971ZM7.32714 12.0971L7.41403 12.1355L7.41404 12.1355M7.32714 12.0971L7.41404 12.1355M6.36164 13.3779C6.37688 13.2824 6.35317 13.1849 6.29634 13.1071L6.29631 13.107L6.08945 12.824C6.12981 12.7392 6.17692 12.6576 6.23024 12.5802L6.57865 12.6178C6.57867 12.6178 6.57869 12.6178 6.57871 12.6178C6.57872 12.6178 6.57872 12.6178 6.57872 12.6178C6.6749 12.6282 6.77096 12.5997 6.8459 12.5391L6.84598 12.5391C6.95618 12.4498 7.0798 12.3784 7.21212 12.3277L7.21218 12.3277C7.3024 12.293 7.37499 12.2239 7.41404 12.1355M6.36164 13.3779L7.55569 11.815L7.41404 12.1355M6.36164 13.3779C6.33953 13.518 6.33953 13.6607 6.36165 13.8008C6.37687 13.8962 6.35315 13.9937 6.29634 14.0715L6.2963 14.0716L6.08947 14.3546C6.12989 14.4395 6.17695 14.521 6.23024 14.5984L6.57865 14.5608L6.36164 13.3779ZM8.81437 12.6178L9.16278 12.5802C9.21606 12.6576 9.26313 12.7391 9.30355 12.824L9.09675 13.107C9.09674 13.107 9.09673 13.107 9.09671 13.107C9.03966 13.185 9.01618 13.2826 9.03126 13.3779L9.03127 13.3779C9.05349 13.5179 9.05349 13.6607 9.03127 13.8007L9.03126 13.8007C9.01617 13.8961 9.03967 13.9936 9.09675 14.0716M8.81437 12.6178L7.32714 15.0815L7.41403 15.0431L7.41404 15.0431L7.55569 15.3637C7.6494 15.3711 7.74357 15.3711 7.83722 15.3637L7.97888 15.0431C7.97888 15.0431 7.97888 15.0431 7.97888 15.0431C8.01795 14.9546 8.09066 14.8856 8.18069 14.851L8.18082 14.8509C8.3132 14.8002 8.43671 14.7288 8.54694 14.6395L8.54701 14.6395C8.62197 14.5789 8.71815 14.5504 8.81429 14.5608C8.8143 14.5608 8.8143 14.5608 8.81431 14.5608C8.81433 14.5608 8.81435 14.5608 8.81437 14.5608L9.16278 14.5984C9.21606 14.521 9.26313 14.4395 9.30355 14.3546L9.09675 14.0716M9.09675 14.0716L9.09671 14.0716L9.17342 14.0155L9.09675 14.0716ZM7.83722 11.815C7.85523 11.8164 7.87321 11.8181 7.89118 11.8201L7.90163 11.7257L7.81474 11.7641L7.83722 11.815Z" fill="white" stroke="white" stroke-width="0.19"/>
<path d="M7.69663 12.7357C7.22551 12.7357 6.84307 13.1182 6.84307 13.5893C6.84307 14.0604 7.22551 14.4428 7.69663 14.4428C8.16776 14.4428 8.5502 14.0604 8.5502 13.5893C8.5502 13.1182 8.16776 12.7357 7.69663 12.7357ZM7.69663 13.3714C7.81688 13.3714 7.91449 13.469 7.91449 13.5893C7.91449 13.7095 7.81688 13.8071 7.69663 13.8071C7.57639 13.8071 7.47878 13.7095 7.47878 13.5893C7.47878 13.469 7.57639 13.3714 7.69663 13.3714Z" fill="white" stroke="white" stroke-width="0.1"/>
<path d="M5.58115 11.7419C5.65951 11.6635 5.70353 11.5573 5.70353 11.4464C5.70353 11.3356 5.65951 11.2293 5.58115 11.151C5.50278 11.0726 5.3965 11.0286 5.28568 11.0286C5.17486 11.0286 5.06857 11.0726 4.99021 11.151C4.91185 11.2293 4.86782 11.3356 4.86782 11.4464C4.86782 11.5573 4.91185 11.6635 4.99021 11.7419C5.06857 11.8203 5.17486 11.8643 5.28568 11.8643C5.3965 11.8643 5.50278 11.8203 5.58115 11.7419Z" fill="white" stroke="white" stroke-width="0.3"/>
<path d="M11.2216 6.04619C11.162 5.98658 11.1285 5.90573 11.1285 5.82143C11.1285 5.73713 11.162 5.65628 11.2216 5.59667C11.2812 5.53706 11.3621 5.50357 11.4464 5.50357C11.5307 5.50357 11.6115 5.53706 11.6711 5.59667C11.7307 5.65628 11.7642 5.73713 11.7642 5.82143C11.7642 5.90573 11.7307 5.98658 11.6711 6.04619C11.6115 6.1058 11.5307 6.13929 11.4464 6.13929C11.3621 6.13929 11.2812 6.1058 11.2216 6.04619Z" fill="white" stroke="white" stroke-width="0.1"/>
<path d="M3.14279 11.764H4.21422C4.38964 11.764 4.53207 11.6216 4.53207 11.4461C4.53207 11.2707 4.38964 11.1283 4.21422 11.1283H3.14279C2.96732 11.1283 2.82494 11.2707 2.82494 11.4461C2.82494 11.6216 2.96732 11.764 3.14279 11.764Z" fill="white" stroke="white" stroke-width="0.1"/>
<path d="M13.5894 5.50327H12.518C12.3425 5.50327 12.2001 5.64565 12.2001 5.82112C12.2001 5.9966 12.3425 6.13898 12.518 6.13898H13.5894C13.7649 6.13898 13.9073 5.99659 13.9073 5.82112C13.9073 5.64565 13.7649 5.50327 13.5894 5.50327Z" fill="white" stroke="white" stroke-width="0.1"/>
</svg>
